<svg version="1.1" xmlns="http://www.w3.org/2000/svg" xmlns:xlink="http://www.w3.org/1999/xlink" width="512.000000pt" height="512.000000pt" viewBox="0,0,256,256"><g fill="#f60000" fill-rule="nonzero" stroke="none" stroke-width="1" stroke-linecap="butt" stroke-linejoin="miter" stroke-miterlimit="10" stroke-dasharray="" stroke-dashoffset="0" font-family="none" font-weight="none" font-size="none" text-anchor="none" style="mix-blend-mode: normal"><g transform="translate(-0.01423,-0.06781) scale(0.5,0.5)"><g transform="translate(0,512) scale(0.1,-0.1)"><path d="M754,4900c-222,-32 -406,-191 -482,-414l-27,-81v-1845v-1845l27,-81c66,-194 209,-334 408,-400c52,-17 119,-19 1075,-22l1020,-3l597,603l597,603l1,436v436l-83,6c-315,25 -619,205 -793,473c-263,403 -220,926 104,1284c166,184 439,321 667,336c111,8 106,3 88,71c-40,156 -170,317 -313,387c-138,67 -90,65 -1535,64c-715,0 -1323,-4 -1351,-8zM2070,4162c91,-47 137,-134 161,-305c14,-106 7,-174 -47,-450l-45,-227l72,-128c150,-262 350,-563 446,-669l38,-43l45,12c28,7 124,12 250,13c186,0 212,-2 277,-23c87,-27 147,-71 188,-137c28,-45 30,-56 30,-139c0,-74 -4,-99 -22,-131c-47,-88 -125,-136 -253,-156c-182,-28 -283,21 -582,278c-14,13 -56,1 -360,-102c-188,-64 -417,-147 -506,-183l-164,-67l-118,-235c-197,-391 -260,-480 -370,-521c-138,-52 -305,15 -366,146c-32,68 -32,150 1,252c33,105 74,164 163,235c76,60 291,191 440,268l83,43l55,110c31,60 75,157 99,216c47,114 262,753 290,862l17,65l-50,100c-134,268 -175,498 -122,690c26,96 57,152 109,196c77,64 158,74 241,30zM3293,904l-388,-395l-3,331c-2,328 -2,332 20,372c12,22 41,50 63,64l40,24h328h329z"></path><path d="M1956,3880c-9,-29 -16,-83 -16,-119c1,-64 21,-196 32,-207c3,-3 11,27 18,67c14,82 9,264 -7,294c-10,17 -13,12 -27,-35z"></path><path d="M1960,2552c-52,-158 -116,-336 -142,-396c-26,-61 -46,-112 -44,-113c2,-2 23,5 47,15c24,11 168,61 319,112c151,51 278,95 282,99c3,3 -41,71 -99,151c-58,80 -141,206 -185,280c-44,74 -81,136 -82,137c0,0 -44,-128 -96,-285z"></path><path d="M2970,2100c65,-54 131,-84 185,-84c28,0 63,3 78,7c23,6 28,12 25,35c-5,46 -94,72 -242,72l-81,-1z"></path><path d="M1155,1457c-107,-64 -160,-120 -180,-191c-20,-68 -13,-89 29,-94c32,-4 50,9 81,58c27,44 147,270 143,270c-2,-1 -34,-20 -73,-43z"></path><path d="M3790,4226c-77,-17 -156,-44 -215,-74c-128,-64 -266,-182 -345,-296c-48,-70 -108,-202 -131,-291c-31,-116 -32,-317 -1,-437c147,-590 819,-869 1341,-559c84,50 208,164 265,245c224,315 229,722 13,1041c-123,181 -338,324 -557,370c-85,18 -291,18 -370,1zM3820,3625v-155h-150h-150v155v155h150h150zM4080,3660c0,-100 -2,-120 -15,-120c-12,0 -15,17 -15,95v95h-35c-32,0 -35,-2 -35,-30c0,-29 -2,-30 -45,-30h-45v-45c0,-38 -3,-45 -20,-45c-18,0 -20,7 -20,70v70h45c25,0 45,5 45,10c0,6 -16,10 -35,10c-28,0 -35,4 -35,20c0,19 7,20 105,20h105zM4418,3623l3,-153h-156h-155v148c0,82 3,152 7,156c4,3 72,5 152,4l146,-3zM4020,3560c0,-82 -3,-100 -15,-100c-12,0 -15,16 -15,80v80h-40c-33,0 -40,3 -40,20c0,18 7,20 55,20h55zM3960,3580c0,-13 -7,-20 -20,-20c-13,0 -20,7 -20,20c0,13 7,20 20,20c13,0 20,-7 20,-20zM3890,3540c0,-13 -7,-20 -20,-20c-13,0 -20,7 -20,20c0,13 7,20 20,20c13,0 20,-7 20,-20zM3960,3460v-80h35c28,0 35,-4 35,-20c0,-16 -7,-20 -35,-20h-35v-70v-70h-105h-105v41c0,33 3,40 18,37c9,-2 18,-13 20,-26c3,-22 7,-23 70,-20l67,3l3,108l3,107h-31c-23,0 -30,4 -30,20c0,16 7,20 30,20c25,0 30,4 30,25c0,16 6,25 15,25c12,0 15,-16 15,-80zM4090,3445v-45h-40c-29,0 -40,4 -40,15c0,8 9,15 20,15c16,0 20,7 20,30c0,23 4,30 20,30c17,0 20,-7 20,-45zM4420,3440c0,-18 -7,-20 -70,-20c-63,0 -70,2 -70,20c0,18 7,20 70,20c63,0 70,-2 70,-20zM4150,3345c0,-78 -3,-95 -15,-95c-12,0 -15,17 -15,95c0,78 3,95 15,95c12,0 15,-17 15,-95zM3810,3410c0,-19 -7,-20 -125,-20h-125v-85c0,-78 -2,-85 -20,-85c-19,0 -20,7 -20,105v105h145c138,0 145,-1 145,-20zM3900,3415c0,-10 -10,-15 -30,-15c-20,0 -30,5 -30,15c0,10 10,15 30,15c20,0 30,-5 30,-15zM4230,3415c0,-9 -9,-15 -25,-15c-16,0 -25,6 -25,15c0,9 9,15 25,15c16,0 25,-6 25,-15zM4270,3270c0,-118 -2,-140 -15,-140c-13,0 -15,22 -15,140c0,118 2,140 15,140c13,0 15,-22 15,-140zM3640,3360c0,-21 -33,-29 -45,-10c-9,15 4,30 26,30c12,0 19,-7 19,-20zM3856,3349c-3,-17 -6,-42 -6,-55c0,-15 -6,-24 -15,-24c-8,0 -15,5 -15,10c0,6 -18,10 -40,10c-39,0 -40,-1 -40,-35c0,-29 -4,-35 -21,-35c-19,0 -21,5 -17,60c1,33 0,60 -4,60c-5,0 -8,-27 -8,-60c0,-47 -3,-60 -15,-60c-12,0 -15,16 -15,80v80h101h102zM4320,3315c0,-51 -3,-65 -15,-65c-12,0 -15,14 -15,65c0,51 3,65 15,65c12,0 15,-14 15,-65zM4380,3360c0,-11 -7,-20 -15,-20c-8,0 -15,9 -15,20c0,11 7,20 15,20c8,0 15,-9 15,-20zM4090,3350c0,-13 -7,-20 -20,-20c-19,0 -27,20 -13,33c13,14 33,6 33,-13zM3910,3305c0,-48 -2,-55 -20,-55c-18,0 -20,7 -20,55c0,48 2,55 20,55c18,0 20,-7 20,-55zM4220,3350c0,-5 -6,-10 -14,-10c-8,0 -18,5 -21,10c-3,6 3,10 14,10c12,0 21,-4 21,-10zM3640,3280c0,-43 -3,-50 -20,-50c-16,0 -20,7 -20,30c0,17 -4,30 -10,30c-5,0 -10,9 -10,20c0,16 7,20 30,20c29,0 30,-1 30,-50zM4220,3245c0,-68 -2,-75 -20,-75c-18,0 -20,7 -20,75c0,68 2,75 20,75c18,0 20,-7 20,-75zM4420,3305c0,-10 -11,-15 -35,-15c-24,0 -35,5 -35,15c0,10 11,15 35,15c24,0 35,-5 35,-15zM4110,3295c0,-11 -12,-15 -50,-15c-38,0 -50,4 -50,15c0,11 12,15 50,15c38,0 50,-4 50,-15zM4410,3215c0,-43 -1,-45 -30,-45c-29,0 -30,-1 -30,-50v-50h-85c-69,0 -85,3 -85,15c0,12 14,15 70,15h70v55c0,30 5,55 10,55c6,0 10,9 10,19c0,18 13,25 58,30c8,1 12,-14 12,-44zM4030,3190c0,-53 -2,-60 -20,-60c-18,0 -20,7 -20,60c0,53 2,60 20,60c18,0 20,-7 20,-60zM4168,3193c-2,-14 -15,-19 -56,-21c-47,-3 -52,-1 -52,17c0,19 6,21 56,21c47,0 55,-3 52,-17zM3830,3025v-155h-155h-155v155v155h155h155zM3898,3042l3,-122h74h75v40c0,33 3,40 20,40c18,0 20,-7 20,-60v-60h-115h-115v146c0,133 1,145 18,142c15,-3 17,-18 20,-126zM4190,3130c0,-18 -7,-20 -60,-20c-53,0 -60,2 -60,20c0,18 7,20 60,20c53,0 60,-2 60,-20zM3980,3125c0,-10 -10,-15 -30,-15c-20,0 -30,5 -30,15c0,10 10,15 30,15c20,0 30,-5 30,-15zM4400,3055v-75h-65h-65v-40c0,-29 -4,-40 -15,-40c-12,0 -15,13 -15,60v59l63,3l62,3l3,53c2,37 7,52 18,52c11,0 14,-16 14,-75zM4030,3035c0,-48 -2,-55 -20,-55c-16,0 -20,7 -20,35c0,24 -5,35 -15,35c-11,0 -15,-12 -15,-50c0,-43 -3,-50 -20,-50c-18,0 -20,7 -20,70v70h55h55zM4090,3065c0,-12 13,-15 55,-15h55v-85c0,-68 -3,-85 -15,-85c-11,0 -15,16 -17,68l-3,67l-57,3c-57,3 -58,4 -58,32c0,23 5,30 20,30c11,0 20,-7 20,-15zM4020,2945c0,-8 -7,-15 -15,-15c-8,0 -15,7 -15,15c0,8 7,15 15,15c8,0 15,-7 15,-15zM4150,2930c0,-20 -5,-30 -15,-30c-10,0 -15,10 -15,30c0,20 5,30 15,30c10,0 15,-10 15,-30zM4370,2945c0,-9 -9,-15 -25,-15c-16,0 -25,6 -25,15c0,9 9,15 25,15c16,0 25,-6 25,-15zM4420,2900c0,-18 -7,-20 -60,-20c-53,0 -60,2 -60,20c0,18 7,20 60,20c53,0 60,-2 60,-20z"></path><path d="M3570,3620v-100h105h105v100v100h-105h-105zM3730,3620v-50h-50h-50v50v50h50h50z"></path><path d="M4170,3620v-100h100h100v100v100h-100h-100zM4320,3619v-50l-52,3l-53,3l-3,48l-3,47h55h56z"></path><path d="M3570,3030v-100h105h105v100v100h-105h-105zM3730,3030v-50h-50h-50v50v50h50h50z"></path></g></g></g></svg>