<svg version="1.1" xmlns="http://www.w3.org/2000/svg" xmlns:xlink="http://www.w3.org/1999/xlink" width="240.000000pt" height="240.000000pt" viewBox="0,0,256,256"><g fill="#ff0000" fill-rule="nonzero" stroke="none" stroke-width="1" stroke-linecap="butt" stroke-linejoin="miter" stroke-miterlimit="10" stroke-dasharray="" stroke-dashoffset="0" font-family="none" font-weight="none" font-size="none" text-anchor="none" style="mix-blend-mode: normal"><g transform="translate(-7.49501,-22.15642) scale(1.06667,1.06667)"><g transform="translate(0,240) scale(0.1,-0.1)"><path d="M1201,1998c-47,-25 -65,-64 -69,-143c-5,-84 5,-119 53,-199l33,-56l-35,-87c-57,-142 -54,-138 -159,-189c-212,-102 -266,-197 -155,-271c95,-64 198,-2 280,169l40,84l93,31c152,51 150,51 209,4c67,-53 116,-68 168,-52c80,23 104,95 52,153l-29,33l-111,1l-110,2l-59,51c-86,75 -88,80 -58,185c29,99 33,174 12,214c-34,65 -105,97 -155,70zM1276,1895c18,-27 14,-84 -11,-153l-13,-37l-21,45c-46,99 -7,224 45,145zM1357,1453c-10,-9 -117,-39 -117,-32c0,4 9,28 20,54l20,46l40,-32c22,-18 39,-34 37,-36zM1648,1383c5,-18 -50,-17 -74,2c-18,14 -16,15 25,13c25,-2 46,-9 49,-15zM1048,1209c-25,-45 -81,-99 -101,-99c-7,0 -22,6 -32,14c-17,12 -17,16 -6,30c15,18 140,96 154,96c5,0 -2,-19 -15,-41z"></path><path d="M310,402c0,-253 1,-260 23,-293c12,-18 38,-44 56,-56l34,-23h805c801,0 804,0 842,21c21,12 48,40 61,63c23,40 24,46 24,291v250l-922,3l-923,2zM961,530c58,-16 84,-52 84,-115c0,-39 -5,-59 -20,-75c-27,-31 -76,-50 -125,-50h-40v-75v-75h-35h-35v194v195l28,4c53,8 107,7 143,-3zM1345,514c60,-28 89,-76 93,-154c9,-146 -77,-220 -255,-220h-73v194v195l28,4c52,10 170,-1 207,-19zM1728,502c-3,-26 -5,-27 -80,-30l-78,-3v-49v-50h75h75v-30v-30h-75h-75v-86v-85l-32,3l-33,3l-3,185c-1,101 -1,189 1,195c3,6 46,9 116,7l112,-3z"></path><path d="M860,415v-65h38c43,0 54,6 71,38c10,18 10,30 1,52c-12,29 -34,40 -82,40c-28,0 -28,-1 -28,-65z"></path><path d="M1180,340v-140h41c53,0 101,23 122,59c20,34 23,124 4,161c-16,33 -72,60 -124,60h-43z"></path></g></g></g><g fill="none" fill-rule="nonzero" stroke="none" stroke-width="none" stroke-linecap="butt" stroke-linejoin="miter" stroke-miterlimit="10" stroke-dasharray="" stroke-dashoffset="0" font-family="none" font-weight="none" font-size="none" text-anchor="none" style="mix-blend-mode: normal"><g fill="#000000" stroke="none" stroke-width="1"><path d="M222.81,22.43v1.36c0,2.83333 -0.45667,5.29333 -1.37,7.38c-0.92,2.09333 -2.19,3.77 -3.81,5.03v0l5.04,3.96l-3.98,3.52l-6.46,-5.18c-0.73333,0.12 -1.49667,0.18 -2.29,0.18v0c-2.51333,0 -4.75667,-0.60333 -6.73,-1.81c-1.97333,-1.20667 -3.5,-2.93333 -4.58,-5.18c-1.08667,-2.24 -1.63667,-4.82 -1.65,-7.74v0v-1.5c0,-2.98 0.53667,-5.60667 1.61,-7.88c1.08,-2.27333 2.60333,-4.01667 4.57,-5.23c1.96667,-1.21333 4.21333,-1.82 6.74,-1.82c2.52667,0 4.77333,0.60667 6.74,1.82c1.96,1.21333 3.48,2.95667 4.56,5.23c1.07333,2.27333 1.61,4.89333 1.61,7.86zM216.48,23.89v-1.48c0,-3.18 -0.57,-5.59667 -1.71,-7.25c-1.14,-1.65333 -2.76333,-2.48 -4.87,-2.48v0c-2.1,0 -3.72,0.81667 -4.86,2.45c-1.14,1.63333 -1.71667,4.02667 -1.73,7.18v0v1.48c0,3.09333 0.57,5.49667 1.71,7.21c1.14,1.70667 2.78,2.56 4.92,2.56v0c2.09333,0 3.70333,-0.82333 4.83,-2.47c1.12667,-1.64667 1.69667,-4.04667 1.71,-7.2zM244.31,38.27l-5.68,-11.11h-4.98v11.11h-6.25v-30.34h11.27c3.58,0 6.34333,0.8 8.29,2.4c1.94667,1.6 2.92,3.85667 2.92,6.77v0c0,2.06667 -0.45,3.79333 -1.35,5.18c-0.89333,1.38 -2.25,2.48 -4.07,3.3v0l6.56,12.4v0.29zM233.65,13v9.1h5.04c1.56667,0 2.78,-0.4 3.64,-1.2c0.86667,-0.8 1.3,-1.9 1.3,-3.3v0c0,-1.43333 -0.40667,-2.55667 -1.22,-3.37c-0.81333,-0.82 -2.06,-1.23 -3.74,-1.23v0z"></path></g></g></svg>