<?xml version="1.0" standalone="no"?>
<!DOCTYPE svg PUBLIC "-//W3C//DTD SVG 20010904//EN"
 "http://www.w3.org/TR/2001/REC-SVG-20010904/DTD/svg10.dtd">
<svg version="1.0" xmlns="http://www.w3.org/2000/svg"
 width="512.000000pt" height="512.000000pt" viewBox="0 0 512.000000 512.000000"
 preserveAspectRatio="xMidYMid meet">

<g transform="translate(0.000000,512.000000) scale(0.100000,-0.100000)"
fill="#000000" stroke="none">
<path d="M754 4900 c-222 -32 -406 -191 -482 -414 l-27 -81 0 -1845 0 -1845
27 -81 c66 -194 209 -334 408 -400 52 -17 119 -19 1075 -22 l1020 -3 597 603
597 603 1 436 0 436 -83 6 c-315 25 -619 205 -793 473 -263 403 -220 926 104
1284 166 184 439 321 667 336 111 8 106 3 88 71 -40 156 -170 317 -313 387
-138 67 -90 65 -1535 64 -715 0 -1323 -4 -1351 -8z m1316 -738 c91 -47 137
-134 161 -305 14 -106 7 -174 -47 -450 l-45 -227 72 -128 c150 -262 350 -563
446 -669 l38 -43 45 12 c28 7 124 12 250 13 186 0 212 -2 277 -23 87 -27 147
-71 188 -137 28 -45 30 -56 30 -139 0 -74 -4 -99 -22 -131 -47 -88 -125 -136
-253 -156 -182 -28 -283 21 -582 278 -14 13 -56 1 -360 -102 -188 -64 -417
-147 -506 -183 l-164 -67 -118 -235 c-197 -391 -260 -480 -370 -521 -138 -52
-305 15 -366 146 -32 68 -32 150 1 252 33 105 74 164 163 235 76 60 291 191
440 268 l83 43 55 110 c31 60 75 157 99 216 47 114 262 753 290 862 l17 65
-50 100 c-134 268 -175 498 -122 690 26 96 57 152 109 196 77 64 158 74 241
30z m1223 -3258 l-388 -395 -3 331 c-2 328 -2 332 20 372 12 22 41 50 63 64
l40 24 328 0 329 0 -389 -396z"/>
<path d="M1956 3880 c-9 -29 -16 -83 -16 -119 1 -64 21 -196 32 -207 3 -3 11
27 18 67 14 82 9 264 -7 294 -10 17 -13 12 -27 -35z"/>
<path d="M1960 2552 c-52 -158 -116 -336 -142 -396 -26 -61 -46 -112 -44 -113
2 -2 23 5 47 15 24 11 168 61 319 112 151 51 278 95 282 99 3 3 -41 71 -99
151 -58 80 -141 206 -185 280 -44 74 -81 136 -82 137 0 0 -44 -128 -96 -285z"/>
<path d="M2970 2100 c65 -54 131 -84 185 -84 28 0 63 3 78 7 23 6 28 12 25 35
-5 46 -94 72 -242 72 l-81 -1 35 -29z"/>
<path d="M1155 1457 c-107 -64 -160 -120 -180 -191 -20 -68 -13 -89 29 -94 32
-4 50 9 81 58 27 44 147 270 143 270 -2 -1 -34 -20 -73 -43z"/>
<path d="M3790 4226 c-77 -17 -156 -44 -215 -74 -128 -64 -266 -182 -345 -296
-48 -70 -108 -202 -131 -291 -31 -116 -32 -317 -1 -437 147 -590 819 -869
1341 -559 84 50 208 164 265 245 224 315 229 722 13 1041 -123 181 -338 324
-557 370 -85 18 -291 18 -370 1z m30 -601 l0 -155 -150 0 -150 0 0 155 0 155
150 0 150 0 0 -155z m260 35 c0 -100 -2 -120 -15 -120 -12 0 -15 17 -15 95 l0
95 -35 0 c-32 0 -35 -2 -35 -30 0 -29 -2 -30 -45 -30 l-45 0 0 -45 c0 -38 -3
-45 -20 -45 -18 0 -20 7 -20 70 l0 70 45 0 c25 0 45 5 45 10 0 6 -16 10 -35
10 -28 0 -35 4 -35 20 0 19 7 20 105 20 l105 0 0 -120z m338 -37 l3 -153 -156
0 -155 0 0 148 c0 82 3 152 7 156 4 3 72 5 152 4 l146 -3 3 -152z m-398 -63
c0 -82 -3 -100 -15 -100 -12 0 -15 16 -15 80 l0 80 -40 0 c-33 0 -40 3 -40 20
0 18 7 20 55 20 l55 0 0 -100z m-60 20 c0 -13 -7 -20 -20 -20 -13 0 -20 7 -20
20 0 13 7 20 20 20 13 0 20 -7 20 -20z m-70 -40 c0 -13 -7 -20 -20 -20 -13 0
-20 7 -20 20 0 13 7 20 20 20 13 0 20 -7 20 -20z m70 -80 l0 -80 35 0 c28 0
35 -4 35 -20 0 -16 -7 -20 -35 -20 l-35 0 0 -70 0 -70 -105 0 -105 0 0 41 c0
33 3 40 18 37 9 -2 18 -13 20 -26 3 -22 7 -23 70 -20 l67 3 3 108 3 107 -31 0
c-23 0 -30 4 -30 20 0 16 7 20 30 20 25 0 30 4 30 25 0 16 6 25 15 25 12 0 15
-16 15 -80z m130 -15 l0 -45 -40 0 c-29 0 -40 4 -40 15 0 8 9 15 20 15 16 0
20 7 20 30 0 23 4 30 20 30 17 0 20 -7 20 -45z m330 -5 c0 -18 -7 -20 -70 -20
-63 0 -70 2 -70 20 0 18 7 20 70 20 63 0 70 -2 70 -20z m-270 -95 c0 -78 -3
-95 -15 -95 -12 0 -15 17 -15 95 0 78 3 95 15 95 12 0 15 -17 15 -95z m-340
65 c0 -19 -7 -20 -125 -20 l-125 0 0 -85 c0 -78 -2 -85 -20 -85 -19 0 -20 7
-20 105 l0 105 145 0 c138 0 145 -1 145 -20z m90 5 c0 -10 -10 -15 -30 -15
-20 0 -30 5 -30 15 0 10 10 15 30 15 20 0 30 -5 30 -15z m330 0 c0 -9 -9 -15
-25 -15 -16 0 -25 6 -25 15 0 9 9 15 25 15 16 0 25 -6 25 -15z m40 -145 c0
-118 -2 -140 -15 -140 -13 0 -15 22 -15 140 0 118 2 140 15 140 13 0 15 -22
15 -140z m-630 90 c0 -21 -33 -29 -45 -10 -9 15 4 30 26 30 12 0 19 -7 19 -20z
m216 -11 c-3 -17 -6 -42 -6 -55 0 -15 -6 -24 -15 -24 -8 0 -15 5 -15 10 0 6
-18 10 -40 10 -39 0 -40 -1 -40 -35 0 -29 -4 -35 -21 -35 -19 0 -21 5 -17 60
1 33 0 60 -4 60 -5 0 -8 -27 -8 -60 0 -47 -3 -60 -15 -60 -12 0 -15 16 -15 80
l0 80 101 0 102 0 -7 -31z m464 -34 c0 -51 -3 -65 -15 -65 -12 0 -15 14 -15
65 0 51 3 65 15 65 12 0 15 -14 15 -65z m60 45 c0 -11 -7 -20 -15 -20 -8 0
-15 9 -15 20 0 11 7 20 15 20 8 0 15 -9 15 -20z m-290 -10 c0 -13 -7 -20 -20
-20 -19 0 -27 20 -13 33 13 14 33 6 33 -13z m-180 -45 c0 -48 -2 -55 -20 -55
-18 0 -20 7 -20 55 0 48 2 55 20 55 18 0 20 -7 20 -55z m310 45 c0 -5 -6 -10
-14 -10 -8 0 -18 5 -21 10 -3 6 3 10 14 10 12 0 21 -4 21 -10z m-580 -70 c0
-43 -3 -50 -20 -50 -16 0 -20 7 -20 30 0 17 -4 30 -10 30 -5 0 -10 9 -10 20 0
16 7 20 30 20 29 0 30 -1 30 -50z m580 -35 c0 -68 -2 -75 -20 -75 -18 0 -20 7
-20 75 0 68 2 75 20 75 18 0 20 -7 20 -75z m200 60 c0 -10 -11 -15 -35 -15
-24 0 -35 5 -35 15 0 10 11 15 35 15 24 0 35 -5 35 -15z m-310 -10 c0 -11 -12
-15 -50 -15 -38 0 -50 4 -50 15 0 11 12 15 50 15 38 0 50 -4 50 -15z m300 -80
c0 -43 -1 -45 -30 -45 -29 0 -30 -1 -30 -50 l0 -50 -85 0 c-69 0 -85 3 -85 15
0 12 14 15 70 15 l70 0 0 55 c0 30 5 55 10 55 6 0 10 9 10 19 0 18 13 25 58
30 8 1 12 -14 12 -44z m-380 -25 c0 -53 -2 -60 -20 -60 -18 0 -20 7 -20 60 0
53 2 60 20 60 18 0 20 -7 20 -60z m138 3 c-2 -14 -15 -19 -56 -21 -47 -3 -52
-1 -52 17 0 19 6 21 56 21 47 0 55 -3 52 -17z m-338 -168 l0 -155 -155 0 -155
0 0 155 0 155 155 0 155 0 0 -155z m68 17 l3 -122 74 0 75 0 0 40 c0 33 3 40
20 40 18 0 20 -7 20 -60 l0 -60 -115 0 -115 0 0 146 c0 133 1 145 18 142 15
-3 17 -18 20 -126z m292 88 c0 -18 -7 -20 -60 -20 -53 0 -60 2 -60 20 0 18 7
20 60 20 53 0 60 -2 60 -20z m-210 -5 c0 -10 -10 -15 -30 -15 -20 0 -30 5 -30
15 0 10 10 15 30 15 20 0 30 -5 30 -15z m420 -70 l0 -75 -65 0 -65 0 0 -40 c0
-29 -4 -40 -15 -40 -12 0 -15 13 -15 60 l0 59 63 3 62 3 3 53 c2 37 7 52 18
52 11 0 14 -16 14 -75z m-370 -20 c0 -48 -2 -55 -20 -55 -16 0 -20 7 -20 35 0
24 -5 35 -15 35 -11 0 -15 -12 -15 -50 0 -43 -3 -50 -20 -50 -18 0 -20 7 -20
70 l0 70 55 0 55 0 0 -55z m60 30 c0 -12 13 -15 55 -15 l55 0 0 -85 c0 -68 -3
-85 -15 -85 -11 0 -15 16 -17 68 l-3 67 -57 3 c-57 3 -58 4 -58 32 0 23 5 30
20 30 11 0 20 -7 20 -15z m-70 -120 c0 -8 -7 -15 -15 -15 -8 0 -15 7 -15 15 0
8 7 15 15 15 8 0 15 -7 15 -15z m130 -15 c0 -20 -5 -30 -15 -30 -10 0 -15 10
-15 30 0 20 5 30 15 30 10 0 15 -10 15 -30z m220 15 c0 -9 -9 -15 -25 -15 -16
0 -25 6 -25 15 0 9 9 15 25 15 16 0 25 -6 25 -15z m50 -45 c0 -18 -7 -20 -60
-20 -53 0 -60 2 -60 20 0 18 7 20 60 20 53 0 60 -2 60 -20z"/>
<path d="M3570 3620 l0 -100 105 0 105 0 0 100 0 100 -105 0 -105 0 0 -100z
m160 0 l0 -50 -50 0 -50 0 0 50 0 50 50 0 50 0 0 -50z"/>
<path d="M4170 3620 l0 -100 100 0 100 0 0 100 0 100 -100 0 -100 0 0 -100z
m150 -1 l0 -50 -52 3 -53 3 -3 48 -3 47 55 0 56 0 0 -51z"/>
<path d="M3570 3030 l0 -100 105 0 105 0 0 100 0 100 -105 0 -105 0 0 -100z
m160 0 l0 -50 -50 0 -50 0 0 50 0 50 50 0 50 0 0 -50z"/>
</g>
</svg>
