<?xml version="1.0" standalone="no"?>
<!DOCTYPE svg PUBLIC "-//W3C//DTD SVG 20010904//EN"
 "http://www.w3.org/TR/2001/REC-SVG-20010904/DTD/svg10.dtd">
<svg version="1.0" xmlns="http://www.w3.org/2000/svg"
 width="240.000000pt" height="240.000000pt" viewBox="0 0 240.000000 240.000000"
 preserveAspectRatio="xMidYMid meet">

<g transform="translate(0.000000,240.000000) scale(0.100000,-0.100000)"
fill="#000000" stroke="none">
<path d="M1201 1998 c-47 -25 -65 -64 -69 -143 -5 -84 5 -119 53 -199 l33 -56
-35 -87 c-57 -142 -54 -138 -159 -189 -212 -102 -266 -197 -155 -271 95 -64
198 -2 280 169 l40 84 93 31 c152 51 150 51 209 4 67 -53 116 -68 168 -52 80
23 104 95 52 153 l-29 33 -111 1 -110 2 -59 51 c-86 75 -88 80 -58 185 29 99
33 174 12 214 -34 65 -105 97 -155 70z m75 -103 c18 -27 14 -84 -11 -153 l-13
-37 -21 45 c-46 99 -7 224 45 145z m81 -442 c-10 -9 -117 -39 -117 -32 0 4 9
28 20 54 l20 46 40 -32 c22 -18 39 -34 37 -36z m291 -70 c5 -18 -50 -17 -74 2
-18 14 -16 15 25 13 25 -2 46 -9 49 -15z m-600 -174 c-25 -45 -81 -99 -101
-99 -7 0 -22 6 -32 14 -17 12 -17 16 -6 30 15 18 140 96 154 96 5 0 -2 -19
-15 -41z"/>
<path d="M310 402 c0 -253 1 -260 23 -293 12 -18 38 -44 56 -56 l34 -23 805 0
c801 0 804 0 842 21 21 12 48 40 61 63 23 40 24 46 24 291 l0 250 -922 3 -923
2 0 -258z m651 128 c58 -16 84 -52 84 -115 0 -39 -5 -59 -20 -75 -27 -31 -76
-50 -125 -50 l-40 0 0 -75 0 -75 -35 0 -35 0 0 194 0 195 28 4 c53 8 107 7
143 -3z m384 -16 c60 -28 89 -76 93 -154 9 -146 -77 -220 -255 -220 l-73 0 0
194 0 195 28 4 c52 10 170 -1 207 -19z m383 -12 c-3 -26 -5 -27 -80 -30 l-78
-3 0 -49 0 -50 75 0 75 0 0 -30 0 -30 -75 0 -75 0 0 -86 0 -85 -32 3 -33 3 -3
185 c-1 101 -1 189 1 195 3 6 46 9 116 7 l112 -3 -3 -27z"/>
<path d="M860 415 l0 -65 38 0 c43 0 54 6 71 38 10 18 10 30 1 52 -12 29 -34
40 -82 40 -28 0 -28 -1 -28 -65z"/>
<path d="M1180 340 l0 -140 41 0 c53 0 101 23 122 59 20 34 23 124 4 161 -16
33 -72 60 -124 60 l-43 0 0 -140z"/>
</g>
</svg>
